<svg width="60" height="80" viewBox="0 0 60 80" fill="none" xmlns="http://www.w3.org/2000/svg">
<path d="M32.9086 22.9722L32.9124 23.6711C32.9124 26.5756 32.697 29.2236 32.3724 30.9499L32.0881 32.0233C31.9299 32.5918 31.722 33.2391 31.5052 33.5696C30.7115 34.7784 29.1597 35.5262 27.4988 35.5262H27.3543C26.2716 35.498 23.9971 34.7479 23.9971 34.7218C20.3371 33.5095 13.2761 29.8505 10.015 27.2419L9.06732 26.4588C8.81916 26.2465 8.54035 25.9953 8.36726 25.7995C7.78909 25.1951 7.5 24.4472 7.5 23.6994C7.5 22.8645 7.82454 22.0884 8.43817 21.4536L9.41182 20.624L9.62997 20.447C12.589 17.9142 20.3153 13.7726 24.3571 12.5051L24.9673 12.3205C25.7016 12.1127 26.7304 11.8649 27.3543 11.842C28.1479 11.842 28.9061 11.9877 29.6288 12.2747C30.5315 12.6769 31.2515 13.3117 31.6497 14.0596C31.9033 14.577 32.3015 16.1315 32.3015 16.1597C32.6665 17.7271 32.8782 20.2002 32.9086 22.9722ZM52.5 23.685C52.5 25.3395 50.8173 26.6809 48.7419 26.6809L39.4938 26.0352C37.8656 26.0352 36.5456 24.9829 36.5456 23.685C36.5456 22.3849 37.8656 21.3349 39.4938 21.3349L48.7419 20.6892C50.8173 20.6892 52.5 22.0306 52.5 23.685Z" fill="white"/>
<path d="M27.0914 55.3406L27.0876 56.0395C27.0876 58.9441 27.303 61.5921 27.6276 63.3183L27.9119 64.3917C28.0701 64.9602 28.278 65.6075 28.4948 65.938C29.2885 67.1468 30.8403 67.8947 32.5012 67.8947H32.6457C33.7284 67.8664 36.0029 67.1163 36.0029 67.0903C39.6629 65.8779 46.7239 62.2189 49.985 59.6103L50.9327 58.8272C51.1808 58.6149 51.4596 58.3637 51.6327 58.1679C52.2109 57.5635 52.5 56.8156 52.5 56.0678C52.5 55.2329 52.1755 54.4568 51.5618 53.822L50.5882 52.9924L50.37 52.8154C47.411 50.2826 39.6847 46.141 35.6429 44.8735L35.0327 44.6889C34.2984 44.4811 33.2696 44.2333 32.6457 44.2104C31.8521 44.2104 31.0939 44.3561 30.3712 44.6431C29.4685 45.0453 28.7485 45.6801 28.3503 46.428C28.0967 46.9454 27.6985 48.4999 27.6985 48.5281C27.3335 50.0955 27.1218 52.5686 27.0914 55.3406ZM7.5 56.0534C7.5 57.7079 9.1827 59.0493 11.2581 59.0493L20.5062 58.4036C22.1344 58.4036 23.4544 57.3513 23.4544 56.0534C23.4544 54.7533 22.1344 53.7033 20.5062 53.7033L11.2581 53.0576C9.1827 53.0576 7.5 54.399 7.5 56.0534Z" fill="white"/>
</svg>
