<svg width="60" height="60" viewBox="0 0 60 60" fill="none" xmlns="http://www.w3.org/2000/svg">
<path fill-rule="evenodd" clip-rule="evenodd" d="M55 30C55 43.8071 43.8071 55 30 55C16.1929 55 5 43.8071 5 30C5 16.1929 16.1929 5 30 5C43.8071 5 55 16.1929 55 30ZM20.2773 39.7228C19.7891 39.2346 19.7891 38.4433 20.2773 37.955L28.2323 30.0001L20.2773 22.0451C19.7891 21.5569 19.7891 20.7655 20.2773 20.2773C20.7654 19.7891 21.5569 19.7891 22.045 20.2773L30 28.2323L37.955 20.2774C38.4431 19.7893 39.2346 19.7893 39.7228 20.2774C40.2109 20.7655 40.2109 21.557 39.7228 22.0451L31.7678 30.0001L39.7228 37.955C40.2109 38.4431 40.2109 39.2346 39.7228 39.7228C39.2345 40.2109 38.4431 40.2109 37.955 39.7228L30 31.7679L22.0451 39.7228C21.5569 40.211 20.7655 40.211 20.2773 39.7228Z" fill="white"/>
</svg>
